<?xml version="1.0" encoding="UTF-8" standalone="no"?>
<!DOCTYPE svg PUBLIC "-//W3C//DTD SVG 1.1//EN" "http://www.w3.org/Graphics/SVG/1.1/DTD/svg11.dtd">
<svg width="100%" height="100%" viewBox="0 0 1055 1055" version="1.1" xmlns="http://www.w3.org/2000/svg" xmlns:xlink="http://www.w3.org/1999/xlink" xml:space="preserve" xmlns:serif="http://www.serif.com/" style="fill-rule:evenodd;clip-rule:evenodd;stroke-linejoin:round;stroke-miterlimit:2;">
    <g transform="matrix(0.718176,0,0,0.718176,0,0)">
        <rect id="Artboard1" x="0" y="0" width="1469" height="1469" style="fill:none;"/>
        <g id="Artboard11" serif:id="Artboard1">
            <g transform="matrix(1.39242,0,0,1.39242,-59.7376,1276.74)">
                <g>
                    <g transform="matrix(1200,0,0,1200,0,0)">
                        <path d="M0.15,-0.338C0.127,-0.338 0.108,-0.346 0.093,-0.362C0.078,-0.377 0.07,-0.396 0.07,-0.417C0.07,-0.44 0.078,-0.459 0.093,-0.475C0.108,-0.491 0.127,-0.499 0.15,-0.499C0.173,-0.499 0.192,-0.491 0.207,-0.475C0.222,-0.459 0.23,-0.44 0.23,-0.417C0.23,-0.396 0.222,-0.377 0.207,-0.362C0.192,-0.346 0.173,-0.338 0.15,-0.338ZM0.15,0.014C0.127,0.014 0.108,0.006 0.093,-0.01C0.078,-0.025 0.07,-0.044 0.07,-0.065C0.07,-0.088 0.078,-0.107 0.093,-0.123C0.108,-0.139 0.127,-0.147 0.15,-0.147C0.173,-0.147 0.192,-0.139 0.207,-0.123C0.222,-0.107 0.23,-0.088 0.23,-0.065C0.23,-0.044 0.222,-0.025 0.207,-0.01C0.192,0.006 0.173,0.014 0.15,0.014Z" style="fill-rule:nonzero;"/>
                    </g>
                    <g transform="matrix(1200,0,0,1200,360,0)">
                        <path d="M0.299,-0.612L0.256,-0.612C0.255,-0.569 0.255,-0.526 0.255,-0.483C0.254,-0.44 0.254,-0.396 0.254,-0.353L0.254,-0.309L0.303,-0.309C0.356,-0.309 0.394,-0.323 0.418,-0.352C0.442,-0.381 0.454,-0.418 0.454,-0.465C0.454,-0.512 0.441,-0.549 0.416,-0.574C0.39,-0.599 0.351,-0.612 0.299,-0.612ZM0.039,-0.616L0.039,-0.663L0.309,-0.663C0.403,-0.663 0.472,-0.645 0.516,-0.609C0.559,-0.572 0.581,-0.524 0.581,-0.465C0.581,-0.428 0.572,-0.393 0.554,-0.362C0.535,-0.33 0.505,-0.305 0.464,-0.286C0.422,-0.267 0.366,-0.258 0.295,-0.258L0.254,-0.258C0.254,-0.226 0.254,-0.193 0.255,-0.16C0.255,-0.127 0.255,-0.092 0.256,-0.057L0.347,-0.047L0.347,-0L0.039,-0L0.039,-0.047L0.123,-0.056C0.124,-0.097 0.125,-0.139 0.125,-0.182L0.125,-0.48C0.125,-0.522 0.124,-0.564 0.123,-0.607L0.039,-0.616Z" style="fill-rule:nonzero;"/>
                    </g>
                </g>
            </g>
        </g>
    </g>
</svg>
